<svg xmlns="http://www.w3.org/2000/svg" viewBox="0 0 128 128" role="img" aria-label="Tokenizer Visualizer icon">
  <defs>
    <linearGradient id="g" x1="0%" y1="0%" x2="100%" y2="100%">
      <stop offset="0%" stop-color="#7be5c4"/>
      <stop offset="100%" stop-color="#8ea6ff"/>
    </linearGradient>
  </defs>
  <rect x="10" y="20" width="108" height="88" rx="18" fill="#04060d" stroke="url(#g)" stroke-width="6"/>
  <rect x="22" y="32" width="84" height="64" rx="12" fill="rgba(255,255,255,0.06)" stroke="rgba(255,255,255,0.1)" stroke-width="2"/>
  <g transform="translate(30 44)">
    <rect x="0" y="0" width="28" height="18" rx="6" fill="#7be5c4" />
    <rect x="36" y="0" width="18" height="18" rx="6" fill="#8ea6ff" />
    <rect x="60" y="0" width="12" height="18" rx="6" fill="#7be5c4" opacity="0.9" />
    <rect x="0" y="24" width="18" height="18" rx="6" fill="#8ea6ff" opacity="0.9" />
    <rect x="24" y="24" width="32" height="18" rx="6" fill="#7be5c4" />
    <rect x="62" y="24" width="22" height="18" rx="6" fill="#8ea6ff" />
  </g>
  <path d="M30 32c8 4 20 6 34 6 14 0 26-2 34-6" stroke="url(#g)" stroke-width="4" stroke-linecap="round" fill="none"/>
  <circle cx="102" cy="96" r="4" fill="#7be5c4"/>
  <circle cx="92" cy="96" r="4" fill="#8ea6ff"/>
</svg>
